<svg width="14" height="14" viewBox="0 0 14 14" fill="none" xmlns="http://www.w3.org/2000/svg">
<path d="M1.46154 2.45622V2C1.33913 2 1.22174 2.04807 1.13518 2.13362C1.04863 2.21918 1 2.33522 1 2.45622H1.46154ZM12.5385 2.45622H13C13 2.33522 12.9514 2.21918 12.8648 2.13362C12.7783 2.04807 12.6609 2 12.5385 2V2.45622ZM1.46154 2.91244H12.5385V2H1.46154V2.91244ZM12.0769 2.45622V9.75576H13V2.45622H12.0769ZM11.3077 10.5161H2.69231V11.4286H11.3077V10.5161ZM1.92308 9.75576V2.45622H1V9.75576H1.92308ZM2.69231 10.5161C2.26769 10.5161 1.92308 10.1755 1.92308 9.75576H1C1 10.1994 1.1783 10.6249 1.49567 10.9386C1.81303 11.2523 2.24348 11.4286 2.69231 11.4286V10.5161ZM12.0769 9.75576C12.0769 10.1755 11.7323 10.5161 11.3077 10.5161V11.4286C11.7565 11.4286 12.187 11.2523 12.5043 10.9386C12.8217 10.6249 13 10.1994 13 9.75576H12.0769Z" fill="white"/>
<path d="M1.85718 2.85742L7.00003 8.00028L12.1429 2.85742" stroke="white" stroke-linecap="round" stroke-linejoin="round"/>
</svg>
