<svg width="20" height="20" viewBox="0 0 20 20" fill="none" xmlns="http://www.w3.org/2000/svg">
<g clip-path="url(#clip0_91_94)">
<path opacity="0.962" fill-rule="evenodd" clip-rule="evenodd" d="M4.27734 -0.0195312C4.56379 -0.0195312 4.85027 -0.0195312 5.13672 -0.0195312C6.0884 0.209368 6.70688 0.795305 6.99219 1.73828C7.20965 2.72463 6.94273 3.55145 6.19141 4.21875C5.51555 4.71434 4.77336 4.84453 3.96484 4.60938C2.94479 4.20762 2.39791 3.45892 2.32422 2.36328C2.36189 1.48679 2.73949 0.803191 3.45703 0.3125C3.71806 0.158522 3.99148 0.0478453 4.27734 -0.0195312ZM4.43359 1.19141C5.14305 1.11301 5.60531 1.41249 5.82031 2.08984C5.87891 3.07292 5.41668 3.53516 4.43359 3.47656C3.76775 3.25248 3.4878 2.79024 3.59375 2.08984C3.73414 1.65658 4.0141 1.3571 4.43359 1.19141Z" fill="#70A1E7"/>
<path opacity="0.962" fill-rule="evenodd" clip-rule="evenodd" d="M14.8243 -0.0195312C15.1107 -0.0195312 15.3972 -0.0195312 15.6836 -0.0195312C16.4818 0.174999 17.0613 0.64375 17.4219 1.38672C17.864 2.67762 17.519 3.69976 16.3868 4.45312C15.157 4.9741 14.1218 4.72019 13.2813 3.69141C12.6153 2.42544 12.8171 1.32518 13.8868 0.390625C14.1797 0.198334 14.4922 0.0616152 14.8243 -0.0195312ZM14.9805 1.19141C15.6905 1.1132 16.1527 1.41268 16.3672 2.08984C16.4732 2.79024 16.1932 3.25248 15.5274 3.47656C14.5443 3.53516 14.0821 3.07292 14.1407 2.08984C14.2811 1.65658 14.561 1.3571 14.9805 1.19141Z" fill="#70A1E7"/>
<path opacity="0.963" fill-rule="evenodd" clip-rule="evenodd" d="M10.4883 19.9806C10.2279 19.9806 9.9675 19.9806 9.70707 19.9806C9.35195 19.868 9.02645 19.6922 8.73051 19.4532C7.57891 18.4674 6.42004 17.4908 5.25395 16.5235C4.30863 15.6954 3.42973 14.8035 2.61723 13.8478C2.02666 13.1122 1.58395 12.2919 1.2891 11.3868C0.735054 9.19456 1.27542 7.32604 2.91019 5.78136C4.17859 4.82765 5.58484 4.55421 7.12895 4.96104C7.95043 5.23573 8.64703 5.69796 9.21879 6.34776C9.4923 6.68698 9.74621 7.03854 9.98051 7.40245C10.553 6.39374 11.3604 5.63202 12.4024 5.11729C14.4579 4.39909 16.2222 4.83526 17.6954 6.42589C18.8315 7.94226 19.157 9.62194 18.6719 11.465C18.4494 12.1705 18.1238 12.8215 17.6954 13.4181C16.7712 14.5899 15.7491 15.6771 14.6289 16.6798C13.5077 17.6839 12.3749 18.6735 11.2305 19.6485C10.998 19.8016 10.7506 19.9123 10.4883 19.9806ZM5.37113 5.9962C6.55672 5.88558 7.5398 6.2762 8.32035 7.16808C8.62172 7.5346 8.87563 7.93175 9.08207 8.35948C7.99813 8.90612 7.52285 9.78503 7.65629 10.9962C7.89719 12.0183 8.52867 12.6498 9.55082 12.8907C8.78004 12.9697 8.05738 13.1976 7.38285 13.5743C6.61324 12.9219 5.91012 12.2058 5.27348 11.4259C4.90234 10.9702 4.6875 10.4494 4.62895 9.86339C4.22531 9.86339 3.82165 9.86339 3.41801 9.86339C3.43764 10.5278 3.62645 11.1397 3.98441 11.6993C4.55457 12.5176 5.21211 13.2663 5.95707 13.9454C6.32617 14.2507 6.68426 14.5697 7.03129 14.9025C7.22922 15.2982 7.13156 15.5912 6.73832 15.7814C6.55973 15.816 6.39047 15.79 6.23051 15.7032C5.12742 14.7825 4.13133 13.7603 3.24223 12.6368C2.10321 11.0421 1.98602 9.37538 2.89066 7.63683C3.48258 6.73229 4.30941 6.18542 5.37113 5.9962ZM13.6914 5.9962C15.6041 5.93358 16.8736 6.80597 17.5 8.61339C17.8881 10.1469 17.6016 11.5401 16.6407 12.7931C15.8062 13.836 14.8882 14.8061 13.8868 15.7032C13.3679 16.0057 13.0293 15.8689 12.8711 15.2931C12.884 15.1828 12.9166 15.0786 12.9688 14.9806C13.5677 14.4076 14.1667 13.8348 14.7657 13.2618C15.3559 12.6541 15.8507 11.9769 16.25 11.2306C16.4404 10.7945 16.5381 10.3388 16.543 9.86339C16.1394 9.86339 15.7357 9.86339 15.3321 9.86339C15.2994 10.3976 15.1236 10.8794 14.8047 11.3087C14.1459 12.124 13.4298 12.8922 12.6563 13.6134C11.959 13.216 11.2103 12.9751 10.4102 12.8907C11.8082 12.5073 12.4397 11.5893 12.3047 10.1368C12.133 9.30104 11.6577 8.70858 10.8789 8.35948C11.3041 7.38745 11.9942 6.67128 12.9493 6.21105C13.1964 6.12015 13.4439 6.04854 13.6914 5.9962ZM9.70707 9.4337C10.6893 9.3937 11.1515 9.86245 11.0938 10.84C10.9275 11.3902 10.5564 11.6896 9.98051 11.7384C9.03234 11.5517 8.6873 10.9918 8.94535 10.0587C9.12328 9.75241 9.37719 9.54409 9.70707 9.4337ZM9.43363 14.1212C10.2559 14.0347 11.0372 14.1714 11.7774 14.5314C11.7952 14.5475 11.8083 14.5671 11.8164 14.59C11.4859 15.5383 11.7333 16.2935 12.5586 16.8556C11.8848 17.4791 11.1946 18.0845 10.4883 18.672C10.2124 18.8363 9.93895 18.8233 9.66801 18.6329C8.95027 18.0062 8.22109 17.3943 7.48051 16.797C8.27988 16.2218 8.53379 15.4601 8.24223 14.5118C8.62609 14.3296 9.02324 14.1994 9.43363 14.1212Z" fill="#70A1E7"/>
</g>
<defs>
<clipPath id="clip0_91_94">
<rect width="20" height="20" fill="white"/>
</clipPath>
</defs>
</svg>
