<svg xmlns="http://www.w3.org/2000/svg" aria-hidden="true" style="position:absolute;width:0;height:0;overflow:hidden">
  <defs>
    <symbol id="icon-footer-mail" viewBox="0 0 32 32">
      <path fill="#fff" d="M3.341 5.614V4.571c-.28 0-.548.11-.746.305s-.309.461-.309.737h1.055zm25.318 0h1.055c0-.277-.111-.542-.309-.737s-.466-.305-.746-.305v1.043zM3.341 6.657H28.66V4.571H3.341v2.086zm24.263-1.043v16.685h2.11V5.614h-2.11zm-1.758 18.423H6.154v2.086h19.692v-2.086zm-21.45-1.738V5.614h-2.11v16.685h2.11zm1.758 1.738a1.749 1.749 0 0 1-1.758-1.738h-2.11c0 1.014.408 1.987 1.133 2.704s1.709 1.12 2.735 1.12v-2.086zm21.45-1.738a1.75 1.75 0 0 1-1.758 1.738v2.086c1.026 0 2.01-.403 2.735-1.12s1.133-1.69 1.133-2.704h-2.11z" style="fill:var(--color1, #fff)"/>
      <path fill="none" stroke="#fff" stroke-linecap="round" stroke-linejoin="round" stroke-width="2.286" d="M4.245 6.531 16 18.286 27.755 6.531" style="stroke:var(--color1, #fff)"/>
    </symbol>
    <symbol id="icon-footer-social-facebook" viewBox="0 0 32 32">
      <path fill="#fff" d="M30.4 15.2c0 8.395-6.805 15.2-15.2 15.2S0 23.595 0 15.2 6.805 0 15.2 0s15.2 6.805 15.2 15.2z" style="fill:var(--color1, #fff)"/>
      <path fill="#1877f2" d="M30.4 15.293C30.4 6.847 23.595 0 15.2 0S0 6.847 0 15.293C0 22.926 5.6 29.6 12.825 30.211V19.714H8.966v-4.421h3.859v-3.369c0-3.833 2.269-5.95 5.741-5.95 1.663 0 3.403.299 3.403.299v3.763h-1.917c-1.888 0-2.477 1.179-2.477 2.388v2.869h4.216l-.674 4.421h-3.542v10.524C24.842 29.091 30.4 22.927 30.4 15.293z" style="fill:var(--color2, #1877f2)"/>
    </symbol>
    <symbol id="icon-footer-social-inst" viewBox="0 0 32 32">
      <path d="M24.5 0h-17A7.5 7.5 0 0 0 0 7.5v17A7.5 7.5 0 0 0 7.5 32h17a7.5 7.5 0 0 0 7.5-7.5v-17A7.5 7.5 0 0 0 24.5 0z" style="fill:var(--color3, #000)"/>
      <path d="M24.5 0h-17A7.5 7.5 0 0 0 0 7.5v17A7.5 7.5 0 0 0 7.5 32h17a7.5 7.5 0 0 0 7.5-7.5v-17A7.5 7.5 0 0 0 24.5 0z" style="fill:var(--color3, #000)"/>
      <path fill="#fff" d="M16.001 3.5c-3.395 0-3.821.015-5.154.075-1.331.061-2.239.272-3.034.581-.822.319-1.52.746-2.214 1.441S4.476 6.989 4.156 7.811c-.31.795-.521 1.704-.581 3.034-.06 1.333-.075 1.76-.075 5.155s.015 3.82.075 5.153c.061 1.331.272 2.239.581 3.034.319.822.747 1.52 1.442 2.214s1.392 1.124 2.214 1.443c.795.309 1.704.52 3.034.581 1.333.061 1.759.076 5.154.076s3.82-.015 5.153-.076c1.331-.061 2.24-.272 3.036-.581a6.108 6.108 0 0 0 2.213-1.443 6.15 6.15 0 0 0 1.443-2.214c.307-.795.518-1.704.581-3.034.06-1.333.076-1.758.076-5.153s-.016-3.821-.076-5.154c-.063-1.331-.273-2.239-.581-3.034-.32-.822-.747-1.52-1.443-2.215s-1.391-1.122-2.213-1.441c-.797-.309-1.706-.52-3.036-.581-1.333-.061-1.758-.075-5.154-.075h.004zM14.88 5.753h1.121c3.338 0 3.733.012 5.051.072 1.219.056 1.88.259 2.321.431.583.226.999.497 1.436.935s.708.854.935 1.438c.171.44.375 1.101.431 2.32.06 1.318.073 1.713.073 5.05s-.013 3.732-.073 5.049c-.056 1.219-.259 1.88-.431 2.32-.226.583-.498.999-.935 1.436s-.853.708-1.436.935c-.44.172-1.102.375-2.321.431-1.318.06-1.714.073-5.051.073s-3.733-.013-5.051-.073c-1.219-.056-1.88-.26-2.321-.431-.583-.227-1-.497-1.438-.935s-.708-.853-.935-1.437c-.171-.44-.375-1.102-.431-2.32-.06-1.318-.072-1.713-.072-5.052s.012-3.732.072-5.05c.056-1.219.259-1.88.431-2.321.227-.583.498-1 .936-1.438s.854-.708 1.438-.935c.441-.172 1.102-.375 2.321-.431 1.153-.052 1.6-.068 3.93-.07v.003zm7.794 2.075a1.5 1.5 0 1 0 0 3.001 1.5 1.5 0 0 0 0-3.002zm-6.673 1.753a6.42 6.42 0 1 0 .002 12.838A6.42 6.42 0 0 0 16 9.581zm0 2.252a4.167 4.167 0 1 1 0 8.334 4.167 4.167 0 0 1 0-8.334z" style="fill:var(--color1, #fff)"/>
      <radialGradient id="paint0_radial_159_485" cx="0" cy="0" r="1" gradientUnits="userSpaceOnUse" gradientTransform="translate(5.3125 21.5404) rotate(-90) scale(19.8215 18.4355)">
      <stop stop-color="#FFDD55"/>
      <stop offset="0.1" stop-color="#FFDD55"/>
      <stop offset="0.5" stop-color="#FF543E"/> 
      <stop offset="1" stop-color="#C837AB"/>
      </radialGradient>
    </symbol>
    <symbol id="icon-footer-social-youtube" viewBox="0 0 32 32">
      <path fill="red" d="M31.278 8.308a4.016 4.016 0 0 0-2.831-2.831C25.965 4.8 15.975 4.8 15.975 4.8s-9.99.021-12.472.697A4.025 4.025 0 0 0 .672 8.328c-.751 4.41-1.042 11.13.021 15.364a4.016 4.016 0 0 0 2.831 2.831c2.482.677 12.472.677 12.472.677s9.99 0 12.472-.677a4.025 4.025 0 0 0 2.831-2.831c.792-4.416 1.036-11.132-.02-15.385z" style="fill:var(--color4, #f00)"/>
      <path fill="#fff" d="m12.796 20.8 8.287-4.8-8.287-4.8v9.6z" style="fill:var(--color1, #fff)"/>
    </symbol>
    <symbol id="icon-nine-svg" viewBox="0 0 32 32">
      <path fill="none" stroke="#70a1e7" stroke-width="2.462" d="m3.332 2.215 26.109 26.109M4.053 27.699 30.161 1.59" style="stroke:var(--color5, #70a1e7)"/>
    </symbol>
    <symbol id="icon-section-five-svg" viewBox="0 0 32 32">
      <path fill="#70a1e7" d="M6.844-.031A4.717 4.717 0 0 0 5.531.5c-1.148.785-1.752 1.879-1.813 3.281.118 1.753.993 2.951 2.625 3.594 1.294.376 2.481.168 3.563-.625 1.202-1.068 1.629-2.391 1.281-3.969C10.73 1.272 9.741.335 8.218-.032H6.843zm.25 1.937c1.135-.125 1.875.354 2.219 1.438.094 1.573-.646 2.313-2.219 2.219-1.065-.359-1.513-1.098-1.344-2.219.225-.693.673-1.172 1.344-1.438zM23.719-.031a4.812 4.812 0 0 0-1.5.656c-1.712 1.495-2.034 3.256-.969 5.281 1.345 1.646 3.001 2.052 4.969 1.219 1.812-1.205 2.364-2.841 1.656-4.906-.577-1.189-1.504-1.939-2.781-2.25h-1.375zm.25 1.937c1.136-.125 1.876.354 2.219 1.438.17 1.121-.278 1.86-1.344 2.219-1.573.094-2.312-.646-2.219-2.219.225-.693.672-1.172 1.344-1.438z" opacity=".962" style="fill:var(--color5, #70a1e7)"/>
      <path fill="#70a1e7" d="M16.781 31.969c.42-.109.816-.286 1.188-.531a287.687 287.687 0 0 0 5.437-4.75 41.348 41.348 0 0 0 4.906-5.219 11.004 11.004 0 0 0 1.562-3.125c.776-2.949.255-5.636-1.562-8.063-2.357-2.545-5.18-3.243-8.469-2.094a8.884 8.884 0 0 0-3.875 3.656 19.567 19.567 0 0 0-1.219-1.688 7.58 7.58 0 0 0-3.344-2.219c-2.471-.651-4.721-.213-6.75 1.313-2.616 2.472-3.48 5.461-2.594 8.969a12.35 12.35 0 0 0 2.125 3.938 40.89 40.89 0 0 0 4.219 4.281c1.866 1.548 3.72 3.11 5.563 4.688a4.75 4.75 0 0 0 1.563.844h1.25zM8.594 9.594c1.897-.177 3.47.448 4.719 1.875a9.512 9.512 0 0 1 1.219 1.906c-1.734.875-2.495 2.281-2.281 4.219.385 1.635 1.396 2.646 3.031 3.031a8.898 8.898 0 0 0-3.469 1.094 26.408 26.408 0 0 1-3.375-3.437 4.592 4.592 0 0 1-1.031-2.5H5.469a5.656 5.656 0 0 0 .906 2.937 21.435 21.435 0 0 0 3.156 3.594c.591.488 1.164.999 1.719 1.531.317.633.16 1.102-.469 1.406a1.186 1.186 0 0 1-.813-.125 33.245 33.245 0 0 1-4.781-4.906c-1.822-2.552-2.01-5.218-.563-8 .947-1.447 2.27-2.322 3.969-2.625zm13.312 0c3.06-.1 5.092 1.296 6.094 4.188.621 2.454.163 4.683-1.375 6.688a38.675 38.675 0 0 1-4.406 4.656c-.83.484-1.372.265-1.625-.656.021-.176.073-.343.156-.5l2.875-2.75A14.388 14.388 0 0 0 26 17.97a5.554 5.554 0 0 0 .469-2.188h-1.937a4.234 4.234 0 0 1-.844 2.313 35.918 35.918 0 0 1-3.437 3.688 9.112 9.112 0 0 0-3.594-1.156c2.237-.613 3.247-2.082 3.031-4.406-.275-1.337-1.035-2.285-2.281-2.844.68-1.555 1.784-2.701 3.313-3.438.395-.145.791-.26 1.187-.344zm-6.375 5.5c1.572-.064 2.311.686 2.219 2.25-.266.88-.86 1.359-1.781 1.437-1.517-.299-2.069-1.195-1.656-2.688.285-.49.691-.823 1.219-1zm-.437 7.5a6.79 6.79 0 0 1 3.75.656.231.231 0 0 1 .062.094c-.529 1.517-.133 2.726 1.188 3.625a83.095 83.095 0 0 1-3.312 2.906c-.441.263-.879.242-1.312-.063a114.93 114.93 0 0 0-3.5-2.937c1.279-.92 1.685-2.139 1.219-3.656a7.84 7.84 0 0 1 1.906-.625z" opacity=".963" style="fill:var(--color5, #70a1e7)"/>
    </symbol>
    <symbol id="icon-svg-plus" viewBox="0 0 32 32">
      <path fill="#70a1e7" d="M16.781 31.969c.42-.109.816-.286 1.188-.531a287.687 287.687 0 0 0 5.437-4.75 41.348 41.348 0 0 0 4.906-5.219 11.004 11.004 0 0 0 1.562-3.125c.776-2.949.255-5.636-1.562-8.063-2.357-2.545-5.18-3.243-8.469-2.094a8.884 8.884 0 0 0-3.875 3.656 19.567 19.567 0 0 0-1.219-1.688 7.58 7.58 0 0 0-3.344-2.219c-2.471-.651-4.721-.213-6.75 1.313-2.616 2.472-3.48 5.461-2.594 8.969a12.35 12.35 0 0 0 2.125 3.938 40.89 40.89 0 0 0 4.219 4.281c1.866 1.548 3.72 3.11 5.563 4.688a4.75 4.75 0 0 0 1.563.844h1.25zM8.594 9.594c1.897-.177 3.47.448 4.719 1.875a9.512 9.512 0 0 1 1.219 1.906c-1.734.875-2.495 2.281-2.281 4.219.385 1.635 1.396 2.646 3.031 3.031a8.898 8.898 0 0 0-3.469 1.094 26.408 26.408 0 0 1-3.375-3.437 4.592 4.592 0 0 1-1.031-2.5H5.469a5.656 5.656 0 0 0 .906 2.937 21.435 21.435 0 0 0 3.156 3.594c.591.488 1.164.999 1.719 1.531.317.633.16 1.102-.469 1.406a1.186 1.186 0 0 1-.813-.125 33.245 33.245 0 0 1-4.781-4.906c-1.822-2.552-2.01-5.218-.563-8 .947-1.447 2.27-2.322 3.969-2.625zm13.312 0c3.06-.1 5.092 1.296 6.094 4.188.621 2.454.163 4.683-1.375 6.688a38.675 38.675 0 0 1-4.406 4.656c-.83.484-1.372.265-1.625-.656.021-.176.073-.343.156-.5l2.875-2.75A14.388 14.388 0 0 0 26 17.97a5.554 5.554 0 0 0 .469-2.188h-1.937a4.234 4.234 0 0 1-.844 2.313 35.918 35.918 0 0 1-3.437 3.688 9.112 9.112 0 0 0-3.594-1.156c2.237-.613 3.247-2.082 3.031-4.406-.275-1.337-1.035-2.285-2.281-2.844.68-1.555 1.784-2.701 3.313-3.438.395-.145.791-.26 1.187-.344zm-6.375 5.5c1.572-.064 2.311.686 2.219 2.25-.266.88-.86 1.359-1.781 1.437-1.517-.299-2.069-1.195-1.656-2.688.285-.49.691-.823 1.219-1zm-.437 7.5a6.79 6.79 0 0 1 3.75.656.231.231 0 0 1 .062.094c-.529 1.517-.133 2.726 1.188 3.625a83.095 83.095 0 0 1-3.312 2.906c-.441.263-.879.242-1.312-.063a114.93 114.93 0 0 0-3.5-2.937c1.279-.92 1.685-2.139 1.219-3.656a7.84 7.84 0 0 1 1.906-.625z" opacity=".963" style="fill:var(--color5, #70a1e7)"/>
    </symbol>
    <symbol id="icon-arrow-left" viewBox="0 0 32 32">
      <path d="m14 26 1.41-1.41L7.83 17H28v-2H7.83l7.58-7.59L14 6 4 16l10 10z"/>
    </symbol>
    <symbol id="icon-arrow-right" viewBox="0 0 32 32">
      <path d="m18 6-1.41 1.41L24.17 15H4v2h20.17l-7.58 7.59L18 26l10-10L18 6z"/>
    </symbol>
  </defs>
</svg>
