<svg xmlns="http://www.w3.org/2000/svg" aria-hidden="true" style="position:absolute;width:0;height:0;overflow:hidden">
  <defs>
    <symbol id="icon-svg-plus" viewBox="0 0 32 32">
      <path fill="#70a1e7" d="M16.781 31.969c.42-.109.816-.286 1.188-.531a287.687 287.687 0 0 0 5.437-4.75 41.348 41.348 0 0 0 4.906-5.219 11.004 11.004 0 0 0 1.562-3.125c.776-2.949.255-5.636-1.562-8.063-2.357-2.545-5.18-3.243-8.469-2.094a8.884 8.884 0 0 0-3.875 3.656 19.567 19.567 0 0 0-1.219-1.688 7.58 7.58 0 0 0-3.344-2.219c-2.471-.651-4.721-.213-6.75 1.313-2.616 2.472-3.48 5.461-2.594 8.969a12.35 12.35 0 0 0 2.125 3.938 40.89 40.89 0 0 0 4.219 4.281c1.866 1.548 3.72 3.11 5.563 4.688a4.75 4.75 0 0 0 1.563.844h1.25zM8.594 9.594c1.897-.177 3.47.448 4.719 1.875a9.512 9.512 0 0 1 1.219 1.906c-1.734.875-2.495 2.281-2.281 4.219.385 1.635 1.396 2.646 3.031 3.031a8.898 8.898 0 0 0-3.469 1.094 26.408 26.408 0 0 1-3.375-3.437 4.592 4.592 0 0 1-1.031-2.5H5.469a5.656 5.656 0 0 0 .906 2.937 21.435 21.435 0 0 0 3.156 3.594c.591.488 1.164.999 1.719 1.531.317.633.16 1.102-.469 1.406a1.186 1.186 0 0 1-.813-.125 33.245 33.245 0 0 1-4.781-4.906c-1.822-2.552-2.01-5.218-.563-8 .947-1.447 2.27-2.322 3.969-2.625zm13.312 0c3.06-.1 5.092 1.296 6.094 4.188.621 2.454.163 4.683-1.375 6.688a38.675 38.675 0 0 1-4.406 4.656c-.83.484-1.372.265-1.625-.656.021-.176.073-.343.156-.5l2.875-2.75A14.388 14.388 0 0 0 26 17.97a5.554 5.554 0 0 0 .469-2.188h-1.937a4.234 4.234 0 0 1-.844 2.313 35.918 35.918 0 0 1-3.437 3.688 9.112 9.112 0 0 0-3.594-1.156c2.237-.613 3.247-2.082 3.031-4.406-.275-1.337-1.035-2.285-2.281-2.844.68-1.555 1.784-2.701 3.313-3.438.395-.145.791-.26 1.187-.344zm-6.375 5.5c1.572-.064 2.311.686 2.219 2.25-.266.88-.86 1.359-1.781 1.437-1.517-.299-2.069-1.195-1.656-2.688.285-.49.691-.823 1.219-1zm-.437 7.5a6.79 6.79 0 0 1 3.75.656.231.231 0 0 1 .062.094c-.529 1.517-.133 2.726 1.188 3.625a83.095 83.095 0 0 1-3.312 2.906c-.441.263-.879.242-1.312-.063a114.93 114.93 0 0 0-3.5-2.937c1.279-.92 1.685-2.139 1.219-3.656a7.84 7.84 0 0 1 1.906-.625z" opacity=".963" style="fill:var(--color5, #70a1e7)"/>
    </symbol>
  </defs>
</svg>
